<svg width="1300" height="640" viewBox="0 0 1300 640" fill="none" xmlns="http://www.w3.org/2000/svg">
<rect width="1300" height="640" fill="#074EE8"/>
<rect x="1146" y="2" width="152" height="167" fill="#074EE8"/>
<path d="M1230.32 61.3496L1232.06 60.3496L1230.32 57.3496L1228.59 60.3496L1230.32 61.3496ZM1249.46 94.4927V96.4927H1252.92L1251.19 93.4927L1249.46 94.4927ZM1211.19 94.4927L1209.46 93.4927L1207.73 96.4927H1211.19V94.4927ZM1228.59 62.3496L1247.73 95.4927L1251.19 93.4927L1232.06 60.3496L1228.59 62.3496ZM1221.35 80.8901L1232.06 62.3496L1228.59 60.3496L1217.89 78.8901L1221.35 80.8901ZM1211.02 79.4883C1213.79 79.4883 1216.38 80.2599 1218.58 81.599L1220.66 78.1812C1217.85 76.4721 1214.55 75.4883 1211.02 75.4883V79.4883ZM1196.45 94.0598C1196.45 86.0122 1202.98 79.4883 1211.02 79.4883V75.4883C1200.77 75.4883 1192.45 83.803 1192.45 94.0598H1196.45ZM1211.02 108.631C1202.98 108.631 1196.45 102.107 1196.45 94.0598H1192.45C1192.45 104.317 1200.77 112.631 1211.02 112.631V108.631ZM1225.59 94.4414C1225.39 102.312 1218.94 108.631 1211.02 108.631V112.631C1221.12 112.631 1229.33 104.578 1229.59 94.5439L1225.59 94.4414ZM1249.46 92.4927H1227.59V96.4927H1249.46V92.4927ZM1227.59 92.4927H1211.19V96.4927H1227.59V92.4927ZM1212.92 95.4927L1221.35 80.8901L1217.89 78.8901L1209.46 93.4927L1212.92 95.4927ZM1218.58 81.599C1222.79 84.1583 1225.59 88.7825 1225.59 94.0598H1229.59C1229.59 87.3285 1226.01 81.4358 1220.66 78.1812L1218.58 81.599ZM1225.59 94.0598C1225.59 94.1875 1225.59 94.3147 1225.59 94.4414L1229.59 94.5439C1229.59 94.383 1229.59 94.2216 1229.59 94.0598H1225.59Z" fill="white"/>
<rect x="1146" y="2" width="152" height="167" stroke="white" stroke-width="4"/>
<path d="M990 400H1292C1295.31 400 1298 402.686 1298 406V632C1298 635.314 1295.31 638 1292 638H990C986.686 638 984 635.314 984 632V406C984 402.686 986.686 400 990 400Z" fill="#074EE8"/>
<rect x="984" y="400" width="314" height="44" fill="#074EE8" stroke="white" stroke-width="4"/>
<circle cx="1004" cy="422" r="6" fill="white"/>
<circle cx="1024" cy="422" r="6" fill="white"/>
<circle cx="1044" cy="422" r="6" fill="white"/>
<path d="M990 400H1292C1295.31 400 1298 402.686 1298 406V632C1298 635.314 1295.31 638 1292 638H990C986.686 638 984 635.314 984 632V406C984 402.686 986.686 400 990 400Z" stroke="white" stroke-width="4"/>
<path d="M1098 2H974C966.268 2 960 8.26802 960 16V281C960 288.732 966.268 295 974 295H1098C1105.73 295 1112 288.732 1112 281V16C1112 8.26801 1105.73 2 1098 2Z" fill="#074EE8" stroke="white" stroke-width="4"/>
<rect x="1007.92" y="279.108" width="56.1648" height="3.67843" rx="1.83921" fill="white" stroke="white"/>
<rect x="1007.92" y="19.5708" width="56.1648" height="3.67843" rx="1.83921" fill="white" stroke="white"/>
<path d="M991.6 23.9185C992.989 23.9185 994.118 22.7975 994.118 21.4097C994.118 20.0219 992.989 18.9009 991.6 18.9009C990.212 18.9009 989.082 20.0219 989.082 21.4097C989.082 22.7975 990.212 23.9185 991.6 23.9185Z" fill="white" stroke="white"/>
<path d="M76 349L76 473C76 480.732 82.268 487 90 487L354 487C361.732 487 368 480.732 368 473L368 349C368 341.268 361.732 335 354 335L90 335C82.268 335 76 341.268 76 349Z" fill="#074EE8" stroke="white" stroke-width="4"/>
<rect x="352.107" y="439.081" width="56.1648" height="3.67843" rx="1.83921" transform="rotate(-90 352.107 439.081)" fill="white" stroke="white"/>
<rect x="93.5703" y="439.081" width="56.1648" height="3.67843" rx="1.83921" transform="rotate(-90 93.5703 439.081)" fill="white" stroke="white"/>
<path d="M97.918 455.399C97.918 454.011 96.797 452.881 95.4092 452.881C94.0214 452.881 92.9004 454.011 92.9004 455.399C92.9004 456.788 94.0214 457.917 95.4092 457.917C96.797 457.917 97.918 456.788 97.918 455.399Z" fill="white" stroke="white"/>
<path d="M1156 218L1156 310.6L1160 310.6L1160 218L1156 218ZM1119.6 347L1031 347L1031 351L1119.6 351L1119.6 347ZM1156 310.6C1156 317.354 1156 322.299 1155.68 326.2C1155.36 330.079 1154.74 332.75 1153.6 334.988L1157.17 336.804C1158.64 333.908 1159.33 330.652 1159.67 326.526C1160 322.424 1160 317.288 1160 310.6L1156 310.6ZM1119.6 351C1126.29 351 1131.42 351.002 1135.53 350.666C1139.65 350.329 1142.91 349.642 1145.8 348.166L1143.99 344.602C1141.75 345.742 1139.08 346.363 1135.2 346.68C1131.3 346.998 1126.35 347 1119.6 347L1119.6 351ZM1153.6 334.988C1151.49 339.127 1148.13 342.493 1143.99 344.602L1145.8 348.166C1150.7 345.673 1154.67 341.696 1157.17 336.804L1153.6 334.988Z" fill="white"/>
<path d="M1028.59 347.586C1027.8 348.367 1027.8 349.633 1028.59 350.414L1041.31 363.142C1042.09 363.923 1043.36 363.923 1044.14 363.142C1044.92 362.361 1044.92 361.095 1044.14 360.314L1032.83 349L1044.14 337.686C1044.92 336.905 1044.92 335.639 1044.14 334.858C1043.36 334.077 1042.09 334.077 1041.31 334.858L1028.59 347.586ZM1031 347L1030 347L1030 351L1031 351L1031 347Z" fill="white"/>
<rect x="1165" y="218" width="14" height="14" rx="7" transform="rotate(-180 1165 218)" fill="white"/>
<rect x="758" y="174" width="170" height="124" fill="#074EE8"/>
<path d="M768 184L918 288" stroke="white" stroke-width="4"/>
<path d="M918 184L768 288" stroke="white" stroke-width="4"/>
<rect x="758" y="174" width="170" height="124" stroke="white" stroke-width="4"/>
<rect x="845" y="505" width="103" height="133" fill="#074EE8"/>
<path d="M855 515L938 628" stroke="white" stroke-width="4"/>
<path d="M938 515L855 628" stroke="white" stroke-width="4"/>
<rect x="845" y="505" width="103" height="133" stroke="white" stroke-width="4"/>
<rect x="830" y="138" width="56" height="98" rx="4" transform="rotate(-90 830 138)" fill="#074EE8"/>
<mask id="mask0" mask-type="alpha" maskUnits="userSpaceOnUse" x="757" y="95" width="73" height="30">
<path d="M757.586 108.586C756.805 109.367 756.805 110.633 757.586 111.414L770.314 124.142C771.095 124.923 772.361 124.923 773.142 124.142C773.923 123.361 773.923 122.095 773.142 121.314L761.828 110L773.142 98.6863C773.923 97.9052 773.923 96.6389 773.142 95.8579C772.361 95.0768 771.095 95.0768 770.314 95.8579L757.586 108.586ZM830 108L759 108L759 112L830 112L830 108Z" fill="#BC31EA"/>
</mask>
<g mask="url(#mask0)">
<rect x="828" y="140" width="71" height="60" transform="rotate(180 828 140)" fill="white"/>
</g>
<rect x="830" y="138" width="56" height="98" rx="4" transform="rotate(-90 830 138)" stroke="white" stroke-width="4"/>
<rect x="661" y="330" width="152" height="308" rx="19.3333" fill="#074EE8" stroke="white" stroke-width="4"/>
<path d="M715.001 352.5C716.566 352.5 717.835 351.231 717.835 349.666C717.835 348.102 716.566 346.833 715.001 346.833C713.436 346.833 712.168 348.102 712.168 349.666C712.168 351.231 713.436 352.5 715.001 352.5Z" fill="white" stroke="white"/>
<rect x="723.502" y="348.167" width="27" height="3" rx="1.5" fill="white" stroke="white"/>
<path d="M744.333 621C744.333 625.05 741.049 628.333 736.999 628.333C732.949 628.333 729.666 625.05 729.666 621C729.666 616.95 732.949 613.667 736.999 613.667C741.049 613.667 744.333 616.95 744.333 621Z" fill="#074EE8" stroke="white" stroke-width="4"/>
<path d="M856.414 335.586C855.633 334.805 854.367 334.805 853.586 335.586L840.858 348.314C840.077 349.095 840.077 350.361 840.858 351.142C841.639 351.923 842.905 351.923 843.686 351.142L855 339.828L866.314 351.142C867.095 351.923 868.361 351.923 869.142 351.142C869.923 350.361 869.923 349.095 869.142 348.314L856.414 335.586ZM857 455L857 337L853 337L853 455L857 455Z" fill="white"/>
<circle cx="855" cy="455" r="7" transform="rotate(-90 855 455)" fill="white"/>
<path d="M229.414 517.586C228.633 516.805 227.367 516.805 226.586 517.586L213.858 530.314C213.077 531.095 213.077 532.361 213.858 533.142C214.639 533.923 215.905 533.923 216.686 533.142L228 521.828L239.314 533.142C240.095 533.923 241.361 533.923 242.142 533.142C242.923 532.361 242.923 531.095 242.142 530.314L229.414 517.586ZM230 633L230 519L226 519L226 633L230 633Z" fill="white"/>
<circle cx="228" cy="633" r="7" transform="rotate(-90 228 633)" fill="white"/>
<rect x="903" y="327" width="92" height="44" rx="22" fill="#074EE8"/>
<circle cx="925" cy="349" r="12" fill="white"/>
<rect x="903" y="327" width="92" height="44" rx="22" stroke="white" stroke-width="4"/>
<g clip-path="url(#clip0)">
<circle cx="921" cy="437" r="27" fill="#074EE8" stroke="white" stroke-width="4"/>
<mask id="path-39-inside-1" fill="white">
<path fill-rule="evenodd" clip-rule="evenodd" d="M899.25 456.182V455.125C899.25 447.893 913.741 444.25 921 444.25C928.259 444.25 942.75 447.893 942.75 455.125V456.182C937.436 462.203 929.662 466 921 466C912.338 466 904.564 462.203 899.25 456.182ZM921 420.083C914.992 420.083 910.125 424.95 910.125 430.958C910.125 436.967 914.992 441.833 921 441.833C927.008 441.833 931.875 436.967 931.875 430.958C931.875 424.95 927.008 420.083 921 420.083Z"/>
</mask>
<path fill-rule="evenodd" clip-rule="evenodd" d="M899.25 456.182V455.125C899.25 447.893 913.741 444.25 921 444.25C928.259 444.25 942.75 447.893 942.75 455.125V456.182C937.436 462.203 929.662 466 921 466C912.338 466 904.564 462.203 899.25 456.182ZM921 420.083C914.992 420.083 910.125 424.95 910.125 430.958C910.125 436.967 914.992 441.833 921 441.833C927.008 441.833 931.875 436.967 931.875 430.958C931.875 424.95 927.008 420.083 921 420.083Z" fill="#074EE8"/>
<path d="M899.25 456.182H895.25V457.695L896.251 458.829L899.25 456.182ZM942.75 456.182L945.749 458.829L946.75 457.695V456.182H942.75ZM903.25 456.182V455.125H895.25V456.182H903.25ZM903.25 455.125C903.25 454.786 903.388 454.194 904.341 453.314C905.32 452.41 906.869 451.498 908.89 450.689C912.939 449.067 917.871 448.25 921 448.25V440.25C916.87 440.25 910.927 441.255 905.915 443.263C903.406 444.268 900.879 445.623 898.915 447.436C896.923 449.273 895.25 451.848 895.25 455.125H903.25ZM921 448.25C924.13 448.25 929.061 449.067 933.11 450.689C935.131 451.498 936.68 452.41 937.659 453.314C938.612 454.194 938.75 454.786 938.75 455.125H946.75C946.75 451.848 945.077 449.273 943.085 447.436C941.121 445.623 938.594 444.268 936.085 443.263C931.073 441.255 925.13 440.25 921 440.25V448.25ZM938.75 455.125V456.182H946.75V455.125H938.75ZM939.751 453.535C935.164 458.732 928.466 462 921 462V470C930.857 470 939.708 465.674 945.749 458.829L939.751 453.535ZM921 462C913.534 462 906.836 458.732 902.249 453.535L896.251 458.829C902.292 465.674 911.143 470 921 470V462ZM914.125 430.958C914.125 427.159 917.201 424.083 921 424.083V416.083C912.782 416.083 906.125 422.741 906.125 430.958H914.125ZM921 437.833C917.201 437.833 914.125 434.758 914.125 430.958H906.125C906.125 439.176 912.782 445.833 921 445.833V437.833ZM927.875 430.958C927.875 434.758 924.799 437.833 921 437.833V445.833C929.218 445.833 935.875 439.176 935.875 430.958H927.875ZM921 424.083C924.799 424.083 927.875 427.159 927.875 430.958H935.875C935.875 422.741 929.218 416.083 921 416.083V424.083Z" fill="white" mask="url(#path-39-inside-1)"/>
</g>
<rect x="836" y="2" width="92" height="44" rx="22" fill="#074EE8"/>
<circle cx="906" cy="24" r="12" fill="white"/>
<path d="M876 18.84L873.18 16L860 29.18L854.84 24.04L852 26.86L860 34.84L876 18.84Z" fill="white"/>
<rect x="836" y="2" width="92" height="44" rx="22" stroke="white" stroke-width="4"/>
<rect x="1298" y="206" width="105" height="98" rx="2.8" transform="rotate(90 1298 206)" fill="#074EE8"/>
<mask id="mask1" mask-type="alpha" maskUnits="userSpaceOnUse" x="1235" y="311" width="31" height="60">
<path d="M1249.19 369.614C1249.97 370.395 1251.23 370.395 1252.01 369.614L1264.74 356.886C1265.52 356.105 1265.52 354.839 1264.74 354.058C1263.96 353.277 1262.69 353.277 1261.91 354.058L1250.6 365.371L1239.29 354.058C1238.5 353.277 1237.24 353.277 1236.46 354.058C1235.68 354.839 1235.68 356.105 1236.46 356.886L1249.19 369.614ZM1248.6 311.4L1248.6 368.2L1252.6 368.2L1252.6 311.4L1248.6 311.4Z" fill="#BC31EA"/>
</mask>
<g mask="url(#mask1)">
<rect x="1300" y="313" width="56.8" height="102" transform="rotate(90 1300 313)" fill="white"/>
</g>
<rect x="1298" y="206" width="105" height="98" rx="2.8" transform="rotate(90 1298 206)" stroke="white" stroke-width="4"/>
<circle cx="326.5" cy="266.5" r="36.5" fill="#074EE8" stroke="white" stroke-width="4"/>
<mask id="path-48-inside-2" fill="white">
<path fill-rule="evenodd" clip-rule="evenodd" d="M297.625 291.966V290.562C297.625 280.961 316.863 276.125 326.5 276.125C336.137 276.125 355.375 280.961 355.375 290.562V291.966C348.32 299.959 337.999 305 326.5 305C315.001 305 304.68 299.959 297.625 291.966ZM326.5 244.042C318.523 244.042 312.063 250.502 312.063 258.479C312.063 266.456 318.523 272.917 326.5 272.917C334.477 272.917 340.938 266.456 340.938 258.479C340.938 250.502 334.477 244.042 326.5 244.042Z"/>
</mask>
<path fill-rule="evenodd" clip-rule="evenodd" d="M297.625 291.966V290.562C297.625 280.961 316.863 276.125 326.5 276.125C336.137 276.125 355.375 280.961 355.375 290.562V291.966C348.32 299.959 337.999 305 326.5 305C315.001 305 304.68 299.959 297.625 291.966ZM326.5 244.042C318.523 244.042 312.063 250.502 312.063 258.479C312.063 266.456 318.523 272.917 326.5 272.917C334.477 272.917 340.938 266.456 340.938 258.479C340.938 250.502 334.477 244.042 326.5 244.042Z" fill="#074EE8"/>
<path d="M297.625 291.966H293.625V293.479L294.626 294.613L297.625 291.966ZM355.375 291.966L358.374 294.613L359.375 293.479V291.966H355.375ZM301.625 291.966V290.562H293.625V291.966H301.625ZM301.625 290.562C301.625 289.631 302.06 288.52 303.494 287.195C304.956 285.846 307.173 284.563 309.936 283.456C315.468 281.24 322.182 280.125 326.5 280.125V272.125C321.181 272.125 313.457 273.428 306.961 276.03C303.71 277.333 300.515 279.059 298.069 281.317C295.595 283.6 293.625 286.693 293.625 290.562H301.625ZM326.5 280.125C330.818 280.125 337.532 281.24 343.064 283.456C345.827 284.563 348.044 285.846 349.506 287.195C350.94 288.52 351.375 289.631 351.375 290.562H359.375C359.375 286.693 357.405 283.6 354.931 281.317C352.485 279.059 349.29 277.333 346.039 276.03C339.543 273.428 331.819 272.125 326.5 272.125V280.125ZM351.375 290.562V291.966H359.375V290.562H351.375ZM352.376 289.319C346.049 296.488 336.804 301 326.5 301V309C339.194 309 350.592 303.429 358.374 294.613L352.376 289.319ZM326.5 301C316.196 301 306.951 296.488 300.624 289.319L294.626 294.613C302.408 303.429 313.806 309 326.5 309V301ZM316.063 258.479C316.063 252.711 320.732 248.042 326.5 248.042V240.042C316.314 240.042 308.063 248.293 308.063 258.479H316.063ZM326.5 268.917C320.732 268.917 316.063 264.247 316.063 258.479H308.063C308.063 268.665 316.314 276.917 326.5 276.917V268.917ZM336.938 258.479C336.938 264.247 332.268 268.917 326.5 268.917V276.917C336.686 276.917 344.938 268.665 344.938 258.479H336.938ZM326.5 248.042C332.268 248.042 336.938 252.711 336.938 258.479H344.938C344.938 248.293 336.686 240.042 326.5 240.042V248.042Z" fill="white" mask="url(#path-48-inside-2)"/>
<rect x="522" y="230" width="92" height="44" rx="22" fill="#074EE8"/>
<circle cx="592" cy="252" r="12" fill="white"/>
<path d="M562 246.84L559.18 244L546 257.18L540.84 252.04L538 254.86L546 262.84L562 246.84Z" fill="white"/>
<rect x="522" y="230" width="92" height="44" rx="22" stroke="white" stroke-width="4"/>
<path d="M356 2H566C569.314 2 572 4.68629 572 8V187C572 190.314 569.314 193 566 193H356C352.686 193 350 190.314 350 187V8C350 4.68629 352.686 2 356 2Z" fill="#074EE8"/>
<rect x="350" y="2" width="222" height="44" fill="#074EE8" stroke="white" stroke-width="4"/>
<circle cx="370" cy="24" r="6" fill="white"/>
<circle cx="390" cy="24" r="6" fill="white"/>
<circle cx="410" cy="24" r="6" fill="white"/>
<path d="M356 2H566C569.314 2 572 4.68629 572 8V187C572 190.314 569.314 193 566 193H356C352.686 193 350 190.314 350 187V8C350 4.68629 352.686 2 356 2Z" stroke="white" stroke-width="4"/>
<path d="M478 492V421.4H482V492H478ZM441.6 385H411V381H441.6V385ZM478 421.4C478 414.646 477.998 409.701 477.68 405.8C477.363 401.921 476.742 399.25 475.602 397.012L479.166 395.196C480.642 398.092 481.329 401.348 481.666 405.474C482.002 409.576 482 414.712 482 421.4H478ZM441.6 381C448.288 381 453.424 380.998 457.526 381.334C461.652 381.671 464.908 382.358 467.804 383.834L465.988 387.398C463.75 386.258 461.079 385.637 457.2 385.32C453.299 385.002 448.354 385 441.6 385V381ZM475.602 397.012C473.493 392.873 470.127 389.507 465.988 387.398L467.804 383.834C472.696 386.327 476.673 390.304 479.166 395.196L475.602 397.012Z" fill="white"/>
<path d="M408.586 384.414C407.805 383.633 407.805 382.367 408.586 381.586L421.314 368.858C422.095 368.077 423.361 368.077 424.142 368.858C424.923 369.639 424.923 370.905 424.142 371.686L412.828 383L424.142 394.314C424.923 395.095 424.923 396.361 424.142 397.142C423.361 397.923 422.095 397.923 421.314 397.142L408.586 384.414ZM411 385H410V381H411V385Z" fill="white"/>
<rect width="14" height="14" rx="7" transform="matrix(-1 0 0 1 487 492)" fill="white"/>
<path d="M9.00002 14L9.00001 74.6L5.00001 74.6L5.00002 14L9.00002 14ZM45.4 111L138 111L138 115L45.4 115L45.4 111ZM9.00001 74.6C9.00001 81.3536 9.00156 86.2986 9.32034 90.2003C9.63722 94.0787 10.2575 96.7498 11.3979 98.9878L7.83383 100.804C6.35831 97.9079 5.67071 94.6517 5.33363 90.526C4.99845 86.4236 5.00001 81.2876 5.00001 74.6L9.00001 74.6ZM45.4 115C38.7124 115 33.5764 115.002 29.474 114.666C25.3483 114.329 22.0921 113.642 19.1962 112.166L21.0122 108.602C23.2502 109.742 25.9213 110.363 29.7997 110.68C33.7014 110.998 38.6464 111 45.4 111L45.4 115ZM11.3979 98.9878C13.5071 103.127 16.8726 106.493 21.0122 108.602L19.1962 112.166C14.304 109.673 10.3265 105.696 7.83383 100.804L11.3979 98.9878Z" fill="white"/>
<path d="M140.414 111.586C141.195 112.367 141.195 113.633 140.414 114.414L127.686 127.142C126.905 127.923 125.639 127.923 124.858 127.142C124.077 126.361 124.077 125.095 124.858 124.314L136.172 113L124.858 101.686C124.077 100.905 124.077 99.6389 124.858 98.8579C125.639 98.0768 126.905 98.0768 127.686 98.8579L140.414 111.586ZM138 111L139 111L139 115L138 115L138 111Z" fill="white"/>
<rect width="14" height="14" rx="7" transform="matrix(1 1.74846e-07 1.74846e-07 -1 0 14)" fill="white"/>
<rect x="564" y="551" width="87" height="82" rx="4" transform="rotate(90 564 551)" fill="#074EE8"/>
<mask id="mask2" mask-type="alpha" maskUnits="userSpaceOnUse" x="564" y="580" width="73" height="30">
<path d="M636.414 596.414C637.195 595.633 637.195 594.367 636.414 593.586L623.686 580.858C622.905 580.077 621.639 580.077 620.858 580.858C620.077 581.639 620.077 582.905 620.858 583.686L632.172 595L620.858 606.314C620.077 607.095 620.077 608.361 620.858 609.142C621.639 609.923 622.905 609.923 623.686 609.142L636.414 596.414ZM564 597L635 597L635 593L564 593L564 597Z" fill="#BC31EA"/>
</mask>
<g mask="url(#mask2)">
<rect x="566" y="549" width="71" height="91" fill="white"/>
</g>
<rect x="564" y="551" width="87" height="82" rx="4" transform="rotate(90 564 551)" stroke="white" stroke-width="4"/>
<rect x="166" y="221" width="88" height="82" rx="4" fill="#074EE8"/>
<mask id="mask3" mask-type="alpha" maskUnits="userSpaceOnUse" x="195" y="148" width="30" height="73">
<path d="M211.414 148.586C210.633 147.805 209.367 147.805 208.586 148.586L195.858 161.314C195.077 162.095 195.077 163.361 195.858 164.142C196.639 164.923 197.905 164.923 198.686 164.142L210 152.828L221.314 164.142C222.095 164.923 223.361 164.923 224.142 164.142C224.923 163.361 224.923 162.095 224.142 161.314L211.414 148.586ZM212 221L212 150L208 150L208 221L212 221Z" fill="#BC31EA"/>
</mask>
<g mask="url(#mask3)">
<rect x="164" y="219" width="71" height="92" transform="rotate(-90 164 219)" fill="white"/>
</g>
<rect x="166" y="221" width="88" height="82" rx="4" stroke="white" stroke-width="4"/>
<rect x="274" y="519" width="172" height="119" fill="#074EE8"/>
<path d="M284 529L436 628" stroke="white" stroke-width="4"/>
<path d="M436 529L284 628" stroke="white" stroke-width="4"/>
<rect x="274" y="519" width="172" height="119" stroke="white" stroke-width="4"/>
<rect x="173" y="2" width="141" height="119" fill="#074EE8"/>
<path d="M183 12L304 111" stroke="white" stroke-width="4"/>
<path d="M304 12L183 111" stroke="white" stroke-width="4"/>
<rect x="173" y="2" width="141" height="119" stroke="white" stroke-width="4"/>
<rect x="399" y="230" width="85" height="103" fill="#074EE8"/>
<path d="M409 240L474 323" stroke="white" stroke-width="4"/>
<path d="M474 240L409 323" stroke="white" stroke-width="4"/>
<rect x="399" y="230" width="85" height="103" stroke="white" stroke-width="4"/>
<rect x="608" y="2" width="112" height="144" fill="#074EE8"/>
<path d="M672.322 49.3496L674.054 48.3496L672.322 45.3496L670.589 48.3496L672.322 49.3496ZM691.457 82.4927V84.4927H694.921L693.189 81.4927L691.457 82.4927ZM653.186 82.4927L651.454 81.4927L649.722 84.4927H653.186V82.4927ZM670.589 50.3496L689.725 83.4927L693.189 81.4927L674.054 48.3496L670.589 50.3496ZM663.35 68.8888L674.054 50.3496L670.589 48.3496L659.886 66.8888L663.35 68.8888ZM653.023 67.4883C655.793 67.4883 658.377 68.2595 660.579 69.5979L662.657 66.1798C659.846 64.4716 656.546 63.4883 653.023 63.4883V67.4883ZM638.451 82.0598C638.451 74.0122 644.975 67.4883 653.023 67.4883V63.4883C642.766 63.4883 634.451 71.803 634.451 82.0598H638.451ZM653.023 96.6313C644.975 96.6313 638.451 90.1075 638.451 82.0598H634.451C634.451 92.3166 642.766 100.631 653.023 100.631V96.6313ZM667.589 82.4414C667.388 90.3121 660.943 96.6313 653.023 96.6313V100.631C663.118 100.631 671.331 92.5775 671.588 82.5439L667.589 82.4414ZM691.457 80.4927H669.589V84.4927H691.457V80.4927ZM669.589 80.4927H653.186V84.4927H669.589V80.4927ZM654.918 83.4927L663.35 68.8888L659.886 66.8888L651.454 81.4927L654.918 83.4927ZM660.579 69.5979C664.789 72.1569 667.594 76.7817 667.594 82.0598H671.594C671.594 75.3276 668.011 69.4341 662.657 66.1798L660.579 69.5979ZM667.594 82.0598C667.594 82.1875 667.593 82.3147 667.589 82.4414L671.588 82.5439C671.592 82.383 671.594 82.2216 671.594 82.0598H667.594Z" fill="white"/>
<rect x="608" y="2" width="112" height="144" stroke="white" stroke-width="4"/>
<rect x="2" y="147" width="128" height="156" fill="#074EE8"/>
<path d="M74.3215 200.35L76.0536 199.35L74.3215 196.35L72.5895 199.35L74.3215 200.35ZM93.4567 233.493V235.493H96.9208L95.1887 232.493L93.4567 233.493ZM55.1864 233.493L53.4543 232.493L51.7223 235.493H55.1864V233.493ZM72.5895 201.35L91.7246 234.493L95.1887 232.493L76.0536 199.35L72.5895 201.35ZM65.3498 219.889L76.0536 201.35L72.5895 199.35L61.8857 217.889L65.3498 219.889ZM55.0227 218.489C57.793 218.489 60.3772 219.26 62.579 220.598L64.6566 217.18C61.8463 215.472 58.5463 214.489 55.0227 214.489V218.489ZM40.4512 233.06C40.4512 225.013 46.9751 218.489 55.0227 218.489V214.489C44.7659 214.489 36.4512 222.803 36.4512 233.06H40.4512ZM55.0227 247.632C46.9751 247.632 40.4512 241.108 40.4512 233.06H36.4512C36.4512 243.317 44.7659 251.632 55.0227 251.632V247.632ZM69.5893 233.441C69.3877 241.312 62.9429 247.632 55.0227 247.632V251.632C65.1177 251.632 73.331 243.578 73.588 233.544L69.5893 233.441ZM93.4567 231.493H71.5887V235.493H93.4567V231.493ZM71.5887 231.493H55.1864V235.493H71.5887V231.493ZM56.9184 234.493L65.3498 219.889L61.8857 217.889L53.4543 232.493L56.9184 234.493ZM62.579 220.598C66.7892 223.157 69.5942 227.782 69.5942 233.06H73.5942C73.5942 226.328 70.0107 220.434 64.6566 217.18L62.579 220.598ZM69.5942 233.06C69.5942 233.188 69.5926 233.315 69.5893 233.441L73.588 233.544C73.5921 233.383 73.5942 233.222 73.5942 233.06H69.5942Z" fill="white"/>
<rect x="2" y="147" width="128" height="156" stroke="white" stroke-width="4"/>
<rect x="90" y="519" width="92" height="119" fill="#074EE8"/>
<path d="M144.322 554.35L146.054 553.35L144.322 550.35L142.589 553.35L144.322 554.35ZM163.457 587.493V589.493H166.921L165.189 586.493L163.457 587.493ZM125.186 587.493L123.454 586.493L121.722 589.493H125.186V587.493ZM142.589 555.35L161.725 588.493L165.189 586.493L146.054 553.35L142.589 555.35ZM135.35 573.889L146.054 555.35L142.589 553.35L131.886 571.889L135.35 573.889ZM125.023 572.488C127.793 572.488 130.377 573.26 132.579 574.598L134.657 571.18C131.847 569.472 128.546 568.488 125.023 568.488V572.488ZM110.451 587.06C110.451 579.012 116.975 572.488 125.023 572.488V568.488C114.766 568.488 106.451 576.803 106.451 587.06H110.451ZM125.023 601.631C116.975 601.631 110.451 595.108 110.451 587.06H106.451C106.451 597.317 114.766 605.631 125.023 605.631V601.631ZM139.589 587.442C139.387 595.312 132.943 601.631 125.023 601.631V605.631C135.117 605.631 143.331 597.578 143.588 587.544L139.589 587.442ZM163.457 585.493H141.589V589.493H163.457V585.493ZM141.589 585.493H125.186V589.493H141.589V585.493ZM126.918 588.493L135.35 573.889L131.886 571.889L123.454 586.493L126.918 588.493ZM132.579 574.598C136.789 577.157 139.594 581.782 139.594 587.06H143.594C143.594 580.328 140.011 574.434 134.657 571.18L132.579 574.598ZM139.594 587.06C139.594 587.188 139.593 587.315 139.589 587.442L143.588 587.544C143.592 587.383 143.594 587.222 143.594 587.06H139.594Z" fill="white"/>
<rect x="90" y="519" width="92" height="119" stroke="white" stroke-width="4"/>
<rect x="520" y="310" width="109" height="205" fill="#074EE8"/>
<path d="M583.322 388.35L585.054 387.35L583.322 384.35L581.589 387.35L583.322 388.35ZM602.457 421.493V423.493H605.921L604.189 420.493L602.457 421.493ZM564.186 421.493L562.454 420.493L560.722 423.493H564.186V421.493ZM581.589 389.35L600.725 422.493L604.189 420.493L585.054 387.35L581.589 389.35ZM574.35 407.889L585.054 389.35L581.589 387.35L570.886 405.889L574.35 407.889ZM564.023 406.489C566.793 406.489 569.377 407.26 571.579 408.598L573.657 405.18C570.846 403.472 567.546 402.489 564.023 402.489V406.489ZM549.451 421.06C549.451 413.013 555.975 406.489 564.023 406.489V402.489C553.766 402.489 545.451 410.803 545.451 421.06H549.451ZM564.023 435.632C555.975 435.632 549.451 429.108 549.451 421.06H545.451C545.451 431.317 553.766 439.632 564.023 439.632V435.632ZM578.589 421.441C578.388 429.312 571.943 435.632 564.023 435.632V439.632C574.118 439.632 582.331 431.578 582.588 421.544L578.589 421.441ZM602.457 419.493H580.589V423.493H602.457V419.493ZM580.589 419.493H564.186V423.493H580.589V419.493ZM565.918 422.493L574.35 407.889L570.886 405.889L562.454 420.493L565.918 422.493ZM571.579 408.598C575.789 411.157 578.594 415.782 578.594 421.06H582.594C582.594 414.328 579.011 408.434 573.657 405.18L571.579 408.598ZM578.594 421.06C578.594 421.188 578.593 421.315 578.589 421.441L582.588 421.544C582.592 421.383 582.594 421.222 582.594 421.06H578.594Z" fill="white"/>
<rect x="520" y="310" width="109" height="205" stroke="white" stroke-width="4"/>
<path d="M707 291L674 291C660.745 291 650 280.255 650 267L650 210C650 196.745 660.745 186 674 186L707 186" stroke="white" stroke-width="4"/>
<rect x="721" y="179" width="14" height="14" rx="7" transform="rotate(90 721 179)" fill="white"/>
<path d="M721.414 292.414C722.195 291.633 722.195 290.367 721.414 289.586L708.686 276.858C707.905 276.077 706.639 276.077 705.858 276.858C705.077 277.639 705.077 278.905 705.858 279.686L717.172 291L705.858 302.314C705.077 303.095 705.077 304.361 705.858 305.142C706.639 305.923 707.905 305.923 708.686 305.142L721.414 292.414ZM707 293L720 293L720 289L707 289L707 293Z" fill="white"/>
<path d="M34.5858 576.414C35.3668 577.195 36.6332 577.195 37.4142 576.414L50.1421 563.686C50.9232 562.905 50.9232 561.639 50.1421 560.858C49.3611 560.077 48.0947 560.077 47.3137 560.858L36 572.172L24.6863 560.858C23.9052 560.077 22.6389 560.077 21.8579 560.858C21.0768 561.639 21.0768 562.905 21.8579 563.686L34.5858 576.414ZM34 344L34 575L38 575L38 344L34 344Z" fill="white"/>
<circle cx="36" cy="344" r="7" transform="rotate(90 36 344)" fill="white"/>
<circle cx="778" cy="36" r="10" fill="white"/>
<rect x="760" y="18" width="36" height="36" rx="18" stroke="white" stroke-width="4"/>
<circle cx="36" cy="620" r="10" fill="white"/>
<rect x="18" y="602" width="36" height="36" rx="18" stroke="white" stroke-width="4"/>
<circle cx="286" cy="175" r="10" fill="white"/>
<rect x="268" y="157" width="36" height="36" rx="18" stroke="white" stroke-width="4"/>
<rect x="405" y="437" width="36" height="36" rx="2" fill="white"/>
<path d="M434.98 449L432.16 446.16L418.98 459.34L413.82 454.2L410.98 457.02L418.98 465L434.98 449Z" fill="#074EE8"/>
<rect x="405" y="437" width="36" height="36" rx="2" stroke="white" stroke-width="4"/>
<rect x="45" y="24" width="92" height="44" rx="22" fill="#074EE8"/>
<circle cx="67" cy="46" r="12" fill="white"/>
<rect x="45" y="24" width="92" height="44" rx="22" stroke="white" stroke-width="4"/>
<defs>
<clipPath id="clip0">
<rect width="58" height="58" fill="white" transform="translate(892 408)"/>
</clipPath>
</defs>
</svg>
